<?xml version="1.0" encoding="utf-8"?>
<!-- Generator: Adobe Illustrator 16.0.0, SVG Export Plug-In . SVG Version: 6.00 Build 0)  -->
<!DOCTYPE svg PUBLIC "-//W3C//DTD SVG 1.1//EN" "http://www.w3.org/Graphics/SVG/1.1/DTD/svg11.dtd">
<svg version="1.1" id="Layer_1" xmlns="http://www.w3.org/2000/svg" xmlns:xlink="http://www.w3.org/1999/xlink" x="0px" y="0px"
	 width="273px" height="273px" viewBox="0 0 273 273" enable-background="new 0 0 273 273" xml:space="preserve">
<g>
	<path fill="#FFFFFF" d="M136.658,272.485c75.301,0,135.986-61.004,135.986-135.985c0-74.982-61.002-135.985-135.986-135.985
		C61.676,0.515,0.355,61.199,0.355,136.5S61.358,272.485,136.658,272.485"/>
	<path fill="#FC4C02" d="M158.582,54.21c0-15.251-13.345-23.512-21.924-45.116c-8.578,21.604-21.922,29.865-21.922,45.116
		c0,10.484,8.578,20.651,21.922,20.651C150.004,74.861,158.582,65.013,158.582,54.21"/>
	<path fill="#041E42" d="M144.283,6.869c15.569,24.464,22.56,33.36,22.56,47.023c0,16.203-13.663,29.548-30.185,29.548
		c-16.203,0-30.183-13.345-30.183-29.548c0-13.663,6.989-22.56,22.558-47.023C60.723,11,6.71,67.236,6.71,136.5
		c0,71.487,58.144,129.631,129.632,129.631c71.486,0,129.631-58.144,129.631-129.631C266.291,67.236,212.275,11,144.283,6.869
		 M136.658,254.375c-65.133,0-117.874-52.741-117.874-117.875c0-54.648,37.173-100.718,87.691-114.063
		c-2.542,3.495-11.757,15.568-11.757,31.455c0,22.876,18.746,41.621,41.939,41.621c23.194,0,41.939-18.429,41.939-41.621
		c0-15.887-8.896-27.96-11.755-31.455c50.517,13.345,87.692,59.414,87.692,114.063C254.535,201.634,201.792,254.375,136.658,254.375
		"/>
	<path fill="#041E42" d="M161.123,150.48h-8.578v13.661c0,2.542-2.225,4.768-4.767,4.768c-2.541,0-4.765-2.226-4.765-4.768v-17.157
		h9.849v-12.708h-9.849v-9.85c0-2.542,2.224-4.766,4.765-4.766c2.542,0,4.767,2.224,4.767,4.766v6.037h8.578v-28.596h-35.901v17.475
		c3.494,0,6.354,2.86,6.354,6.354v39.716c0,1.906-1.588,3.496-3.495,3.496v72.122c0,5.083-2.541,7.625-3.813,8.261
		c4.131,0.317,8.261,0.636,12.391,0.636c5.084,0,10.167-0.318,15.251-1.271c0,0,9.214-1.905,9.214-9.85V150.48L161.123,150.48z"/>
	<path fill="#041E42" d="M125.222,150.48h-8.579v14.933c0,1.906-1.589,3.494-3.495,3.494s-3.495-1.588-3.495-3.494v-42.574
		c0-1.907,1.589-3.496,3.495-3.496v-17.475H94.719v17.475c1.907,0,3.496,1.589,3.496,3.496v42.574c0,1.906-1.589,3.494-3.496,3.494
		v62.911c0,5.399-2.858,6.988-4.13,7.624c7.943,4.131,16.84,7.309,26.054,8.896c0,0,8.579,1.271,8.579-7.308
		C125.222,241.35,125.222,150.48,125.222,150.48z"/>
	<path fill="#041E42" d="M92.178,231.818v-62.911c-1.906,0-3.495-1.588-3.495-3.494v-42.574c0-1.907,1.589-3.496,3.495-3.496
		v-17.475H73.75v17.475c1.906,0,3.494,1.589,3.494,3.496v42.574c0,1.906-1.588,3.494-3.494,3.494v42.894
		c0,8.895-4.448,10.484-6.99,10.484c5.719,5.719,12.073,10.484,19.063,14.298C85.823,236.9,92.178,239.442,92.178,231.818"/>
	<path fill="#041E42" d="M234.2,130.464v-19.382c0-5.083-4.131-9.214-9.215-9.214h-11.121c-5.083,0-9.213,4.131-9.213,9.214v25.735
		c0,1.271,0.953,3.178,1.907,4.13l14.615,13.345c0.952,0.953,1.905,2.86,1.905,4.131v5.719c0,2.86-2.224,5.084-5.084,5.084
		c-2.857,0-5.083-2.224-5.083-5.084v-13.344h-8.578v73.394c18.109-17.157,29.866-40.668,29.866-67.039v-3.813
		c0-1.271-0.954-3.178-1.906-4.131l-14.615-13.344c-0.954-0.954-1.906-2.86-1.906-4.131v-8.578c0-1.907,1.587-3.813,3.813-3.813
		c2.224,0,3.813,1.589,3.813,3.813v7.625L234.2,130.464L234.2,130.464z"/>
	<path fill="#041E42" d="M71.208,212.117V111.082c0-5.083-4.131-9.531-9.215-9.531H48.332c-5.083,0-9.214,4.13-9.214,9.531v45.752
		c0,22.876,8.578,43.847,22.875,60.368C64.536,220.695,71.208,221.968,71.208,212.117 M59.77,164.142
		c0,2.542-2.224,4.766-4.766,4.766c-2.859,0-5.083-2.224-5.083-4.766v-39.715c0-2.859,2.224-4.766,5.083-4.766
		c2.542,0,4.766,2.224,4.766,4.766V164.142z"/>
	<path fill="#041E42" d="M198.298,165.413v-20.97c0-3.496-3.813-5.084-3.813-5.084s3.813-1.59,3.813-5.083v-23.194
		c0-5.083-4.131-9.214-9.215-9.214h-25.1v17.475c1.905,0,3.495,1.589,3.495,3.496v42.574c0,1.906-1.59,3.494-3.495,3.494v70.217
		c0,3.813-1.59,6.354-3.495,8.261c6.673-1.588,13.025-3.812,19.062-6.672c0,0,4.131-1.906,4.131-9.85v-61.956
		c-2.858,0-5.083-2.224-5.083-5.083v-15.567c0-2.227,1.906-3.813,3.814-3.813c2.223,0,3.812,1.906,3.812,3.813v83.562
		c0,2.223-0.317,4.129-0.953,6.035c5.084-2.859,9.849-6.035,13.979-9.532c0,0,2.225-1.906,2.225-11.119v-48.295
		C199.886,168.907,198.298,167.319,198.298,165.413 M187.177,129.828c0,2.224-1.906,4.131-4.13,4.131
		c-2.225,0-4.131-1.907-4.131-4.131v-6.354c0-2.225,1.906-4.131,4.131-4.131c2.224,0,4.13,1.906,4.13,4.131V129.828z"/>
</g>
</svg>
